<svg width="40" height="40" viewBox="0 0 40 40" fill="none" xmlns="http://www.w3.org/2000/svg">
  <defs>
    <linearGradient id="nd-grad" x1="6" y1="2" x2="34" y2="38" gradientUnits="userSpaceOnUse">
      <stop offset="0%" stop-color="#22D3EE" />
      <stop offset="55%" stop-color="#818CF8" />
      <stop offset="100%" stop-color="#34D399" />
    </linearGradient>
  </defs>
  <path d="M20 4 C 14 12, 8 18, 8 26 a12 12 0 0 0 24 0 C 32 18, 26 12, 20 4 Z" fill="url(#nd-grad)" opacity="0.18" />
  <path d="M20 4 C 14 12, 8 18, 8 26 a12 12 0 0 0 24 0 C 32 18, 26 12, 20 4 Z" stroke="url(#nd-grad)" stroke-width="1.5" stroke-linejoin="round" />
  <circle cx="20" cy="14" r="2" fill="url(#nd-grad)" />
  <circle cx="14" cy="22" r="1.6" fill="#22D3EE" />
  <circle cx="26" cy="22" r="1.6" fill="#818CF8" />
  <circle cx="20" cy="29" r="1.8" fill="#34D399" />
  <path d="M20 14 L14 22 M20 14 L26 22 M14 22 L20 29 M26 22 L20 29 M14 22 L26 22" stroke="url(#nd-grad)" stroke-width="0.9" stroke-linecap="round" opacity="0.85" />
</svg>
